<svg xmlns="http://www.w3.org/2000/svg" xmlns:xlink="http://www.w3.org/1999/xlink" width="47.175" height="47.175" viewBox="0 0 37.5 27.175">
    <defs>
        <clipPath id="clip-path">
            <rect id="r_c" data-name="Rectangle c" width="146.545" height="27.175" fill="none"/>
        </clipPath>
    </defs>
    <g id="g_cont" data-name="Group cont" transform="translate(0 0)">
        <g id="g_let" data-name="Group let" transform="translate(0 0)" clip-path="url(#clip-path)">
            <path id="Path_v" data-name="Path v" d="M23.928,6.391V1.176A1.1,1.1,0,0,1,25.045.039L28.77,0a1.143,1.143,0,0,1,1.215,1.176V6.391h3.254A1.1,1.1,0,0,1,34.357,7.47v2.607a1.1,1.1,0,0,1-1.1,1.1H29.985V18.35a2.6,2.6,0,0,0,1,2.324,5.043,5.043,0,0,0,2.834.655h.63a1.533,1.533,0,0,1,1.2,1.275V25.74a1.628,1.628,0,0,1-1.2,1.2h-.562a18.1,18.1,0,0,1-3.608-.34,12.192,12.192,0,0,1-3.056-1.052,6.062,6.062,0,0,1-3.293-5.7V11.174H21.786a2.592,2.592,0,0,1-1.052-.1c-.1.194-.207.388-.31.582l-.329.616-.424.794-.5.943L18.6,15.073l-.614,1.15-.646,1.208L16.68,18.67l-.661,1.238-.645,1.208-.613,1.148-.565,1.058-.5.939-.422.79-.326.611-.215.4-.089.167a1.033,1.033,0,0,1-.96.686,1.165,1.165,0,0,1-1-.647L.193,7.665C-.219,6.9.036,6.391.879,6.391H5.467A1.765,1.765,0,0,1,7.152,7.508l4.49,9.959,4.333-10A1.513,1.513,0,0,1,17.5,6.391Z" transform="translate(0 0)" fill="#00000" fill-rule="evenodd"/>
            <path id="Path_t" data-name="Path t" d="M52.125,34.188a2.8,2.8,0,1,1-2.8-2.8A2.8,2.8,0,0,1,52.125,34.188Z" transform="translate(-14.904 -10.055)" fill="#00f0ff" fill-rule="evenodd"/>
        </g>
    </g>
</svg>
